<svg id="Calque_1" data-name="Calque 1" xmlns="http://www.w3.org/2000/svg" viewBox="0 0 45 45"><defs><style>.cls-1{fill:#17fbd2;}.cls-2{fill:#fff;}</style></defs><title>Plan de travail 1</title><circle class="cls-1" cx="22.5" cy="22.5" r="21"/><path class="cls-2" d="M22.5,3A19.5,19.5,0,1,1,3,22.5,19.53,19.53,0,0,1,22.5,3m0-3A22.5,22.5,0,1,0,45,22.5,22.5,22.5,0,0,0,22.5,0Z"/><path class="cls-2" d="M22.58,35.53A64.2,64.2,0,0,0,29,29.68c2.09-2.19,4.78-4.76,5.38-7.67,1.31-6.3-2.88-8.93-6.88-8.91-3.84,0-5,4-5,4s-1.17-4-5-3.93-8.15,2.69-6.79,9c.63,2.91,3.34,5.45,5.46,7.62A64.63,64.63,0,0,0,22.58,35.53Z"/></svg>