<svg id="Calque_1" data-name="Calque 1" xmlns="http://www.w3.org/2000/svg" viewBox="0 0 254 251"><defs><style>.cls-1{fill:#ead88c;}.cls-2{fill:#e2d088;}.cls-3{fill:#f2d03b;}.cls-4{fill:#f2e394;}.cls-5{fill:#00ada7;}.cls-6{fill:#bd4932;}.cls-7{fill:#fff;}.cls-8{fill:#932d1c;}.cls-9{fill:#771f13;}.cls-10{fill:#fffad5;}.cls-11{fill:#ff7f66;}</style></defs><title>Plan de travail 1</title><path class="cls-1" d="M193.1,92.72a7.46,7.46,0,0,1-7.45,7.45h0a7.46,7.46,0,0,1-7.46-7.45V77.46A7.45,7.45,0,0,1,185.65,70h0a7.45,7.45,0,0,1,7.45,7.45Z"/><path class="cls-2" d="M127.79,165.89a6.33,6.33,0,0,0,.86-.06,6.19,6.19,0,0,0,5.28-7C124.3,90.13,83.53,81.71,81.8,81.38a6.2,6.2,0,0,0-2.33,12.17c1.49.31,33.9,7.78,42.19,67a6.2,6.2,0,0,0,6.13,5.33Z"/><path class="cls-3" d="M117.58,110C102.35,85.61,83,81.61,81.8,81.38a6.2,6.2,0,0,0-2.33,12.17c1,.2,15.5,3.55,27.61,22.93Z"/><path class="cls-4" d="M108.48,244.49l-19-8.23V177.69c7.18-3.55,11.72-8.78,11.72-14.61,0-10.7-15.25-19.38-34.07-19.38S33.1,152.38,33.1,163.08c0,5.83,4.55,11.06,11.72,14.61v58.57l-18.95,8.23H57V181.57a59.5,59.5,0,0,0,20.39,0v62.92Z"/><path class="cls-5" d="M89.52,209.08V177.69c7.18-3.55,11.72-8.78,11.72-14.61,0-10.7-15.25-19.38-34.07-19.38S33.1,152.38,33.1,163.08c0,5.83,4.55,11.06,11.72,14.61v31.39H57V181.57a59.5,59.5,0,0,0,20.39,0v27.51Z"/><path class="cls-3" d="M75.23,72.82H59.11s-28.42,27.33-30.82,94.57h77.77C103.66,100.15,75.23,72.82,75.23,72.82Z"/><path class="cls-1" d="M72.13,71H64.82S57.3,81.07,53.08,91.71H83.86C79.64,81.07,72.13,71,72.13,71Z"/><circle class="cls-6" cx="64.57" cy="129.07" r="18.25" transform="translate(-75.54 94.49) rotate(-49.56)"/><path class="cls-4" d="M128,165.89a6.33,6.33,0,0,1-.86-.06,6.19,6.19,0,0,1-5.28-7c9.63-68.71,50.4-77.13,52.13-77.46a6.2,6.2,0,0,1,2.33,12.17c-1.49.31-33.89,7.78-42.19,67a6.2,6.2,0,0,1-6.13,5.33Z"/><path class="cls-4" d="M242.39,165.89a6.36,6.36,0,0,0,.87-.06,6.19,6.19,0,0,0,5.27-7c-9.63-68.71-50.39-77.13-52.12-77.46a6.2,6.2,0,0,0-2.34,12.17c1.49.31,33.9,7.78,42.2,67a6.19,6.19,0,0,0,6.12,5.33Z"/><path class="cls-7" d="M165.75,236.94h0l-17.4,7.55h31.11v-6.91S173.55,241.41,165.75,236.94Z"/><path class="cls-7" d="M205.54,236.94h0l17.4,7.55H191.83v-6.91S197.74,241.41,205.54,236.94Z"/><path class="cls-8" d="M74,116.48c0,1.81-4.24,3.28-9.46,3.28s-9.45-1.47-9.45-3.28,4.23-3.28,9.45-3.28S74,114.67,74,116.48Z"/><path class="cls-8" d="M73.92,116.94a1.24,1.24,0,0,0,.11-.46C74,116.22,74,116.43,73.92,116.94Z"/><path class="cls-9" d="M55.63,117.53c1.27,1.3,4.79,2.23,8.94,2.23s7.68-.93,9-2.23c-1.27-1.29-4.79-2.22-9-2.22S56.9,116.24,55.63,117.53Z"/><path class="cls-10" d="M67.93,119.55l4.41-14.87,7.75-1.09-.27-1.88-9,1.25-5,16.77C66.59,119.69,67.28,119.63,67.93,119.55Z"/><path class="cls-4" d="M62.38,125.63c-23.14,8.77-38.24,5.47-45.06,2.81C26,108.07,40.23,99.22,48.7,95.59l7.38-14.36a6.15,6.15,0,0,0-2.74-.12c-1.43.27-35.23,7-49.66,48.26a6.19,6.19,0,0,0,2.25,7.08c.59.43,10.38,7.21,28.42,7.21,8.86,0,19.7-1.63,32.42-6.46a6.19,6.19,0,1,0-4.39-11.57Z"/><path class="cls-3" d="M56.08,81.23a6.15,6.15,0,0,0-2.74-.12c-1.17.22-23.92,4.77-40.08,28.88l10.54,6.54A58,58,0,0,1,48.69,95.59Z"/><polygon class="cls-4" points="222.94 244.49 203.99 236.26 203.99 89.92 195.82 89.92 195.62 81.28 175.72 81.3 175.63 89.92 167.3 89.92 167.3 236.26 148.35 244.49 179.46 244.49 179.46 176.39 191.83 176.39 191.83 244.49 222.94 244.49"/><path class="cls-7" d="M199.31,103V81.74a1.43,1.43,0,0,0-2.86,0V103H174V81.74a1.43,1.43,0,0,0-2.86,0V103H167.3v61.25l12.16,12.13h12.37L204,164.26V103Z"/><rect class="cls-11" x="167.3" y="131.88" width="36.69" height="4.67"/><rect class="cls-11" x="167.3" y="120.58" width="36.69" height="4.67"/><rect class="cls-11" x="167.3" y="109.28" width="36.69" height="4.67"/><rect class="cls-11" x="167.3" y="143.18" width="36.69" height="4.67"/><polygon class="cls-11" points="197.78 170.46 202.46 165.79 168.83 165.79 173.51 170.46 197.78 170.46"/><rect class="cls-11" x="167.3" y="154.49" width="36.69" height="4.67"/></svg>