<svg id="Calque_1" data-name="Calque 1" xmlns="http://www.w3.org/2000/svg" viewBox="0 0 45 45"><defs><style>.cls-1{fill:#17fbd2;}.cls-2{fill:#fff;}</style></defs><title>Plan de travail 1</title><circle class="cls-1" cx="22.5" cy="22.5" r="21"/><path class="cls-2" d="M22.5,3A19.5,19.5,0,1,1,3,22.5,19.53,19.53,0,0,1,22.5,3m0-3A22.5,22.5,0,1,0,45,22.5,22.5,22.5,0,0,0,22.5,0Z"/><path class="cls-2" d="M18.92,35.58a.68.68,0,0,0,.52.42h6.9a.68.68,0,0,0,.52-.42L30,21.37l0-.22-3.55-7.84a.9.9,0,0,0-.63-.31h-6c-.21,0-.42.1-.42.31l-3.66,7.74c0,.1-.1.21,0,.31ZM20,14h5.35l3.36,7.46L25.78,35H19.69L16.54,21.35Z"/><path class="cls-2" d="M21,34H25a.68.68,0,0,0,.51-.42L28,21.43l0-.2-2.55-5.91c0-.21-.21-.32-.41-.32H21a.57.57,0,0,0-.51.32L18,21.23l0,.21,2.47,12.14A.47.47,0,0,0,21,34Zm0-18h3.61l2.34,5.52L24.44,33H21L18.59,21.52Z"/><path class="cls-2" d="M22,28a.5.5,0,0,0,1,0V22h2a.5.5,0,0,0,0-1H23V18a.5.5,0,0,0-1,0v3H20a.5.5,0,0,0,0,1h2Z"/></svg>