<?xml version="1.0" encoding="utf-8"?>
<!-- Generator: Adobe Illustrator 22.0.1, SVG Export Plug-In . SVG Version: 6.00 Build 0)  -->
<svg version="1.1" id="Calque_1" xmlns="http://www.w3.org/2000/svg" xmlns:xlink="http://www.w3.org/1999/xlink" x="0px" y="0px"
	 viewBox="0 0 45 45" style="enable-background:new 0 0 45 45;" xml:space="preserve">
<style type="text/css">
	.st0{fill:#1562E0;}
	.st1{fill:#FFFFFF;}
</style>
<title>Plan de travail 1</title>
<circle class="st0" cx="22.5" cy="22.5" r="21"/>
<path class="st1" d="M22.5,3C33.3,3,42,11.7,42,22.5S33.3,42,22.5,42S3,33.3,3,22.5C3,11.7,11.7,3,22.5,3 M22.5,0
	C10.1,0,0,10.1,0,22.5S10.1,45,22.5,45S45,34.9,45,22.5S34.9,0,22.5,0z"/>
<path class="st1" d="M17,37.7c0.1,0.3,0.4,0.5,0.8,0.6H28c0.3-0.1,0.6-0.3,0.8-0.6l4.6-19.2v-0.3L28.2,7.6c-0.2-0.2-0.6-0.4-0.9-0.4
	h-8.9c-0.3,0-0.6,0.1-0.6,0.4L12.3,18c0,0.1-0.1,0.3,0,0.4L17,37.7z M18.6,8.5h7.9l5,10.1l-4.3,18.3h-9l-4.7-18.4L18.6,8.5z"/>
<path class="st1" d="M20.1,35.5H26c0.3-0.1,0.6-0.3,0.8-0.6l3.7-16.4v-0.3l-3.8-8c0-0.3-0.3-0.4-0.6-0.4h-6c-0.3,0-0.6,0.2-0.8,0.4
	l-3.7,8v0.3L19.3,35C19.4,35.3,19.7,35.6,20.1,35.5C20.1,35.5,20.1,35.5,20.1,35.5z M20.1,11.2h5.3l3.5,7.5l-3.7,15.5h-5.1
	l-3.6-15.5L20.1,11.2z"/>
<path class="st1" d="M21.6,27.4c0,0.4,0.3,0.7,0.7,0.7c0.4,0,0.7-0.3,0.7-0.7v-8.1h3c0.4,0,0.7-0.3,0.7-0.7S26.4,18,26,18h-3v-4.1
	c0-0.4-0.3-0.7-0.7-0.7c-0.4,0-0.7,0.3-0.7,0.7V18h-3c-0.4,0-0.7,0.3-0.7,0.7s0.3,0.7,0.7,0.7h3V27.4z"/>
</svg>
