<?xml version="1.0" encoding="utf-8"?>
<!-- Generator: Adobe Illustrator 22.0.1, SVG Export Plug-In . SVG Version: 6.00 Build 0)  -->
<svg version="1.1" id="Calque_1" xmlns="http://www.w3.org/2000/svg" xmlns:xlink="http://www.w3.org/1999/xlink" x="0px" y="0px"
	 viewBox="0 0 45 45" style="enable-background:new 0 0 45 45;" xml:space="preserve">
<style type="text/css">
	.st0{fill:#1562E0;}
	.st1{fill:#FFFFFF;}
</style>
<title>Plan de travail 1</title>
<circle class="st0" cx="22.5" cy="22.5" r="21"/>
<path class="st1" d="M22.5,3C33.3,3,42,11.7,42,22.5S33.3,42,22.5,42S3,33.3,3,22.5C3,11.7,11.7,3,22.5,3 M22.5,0
	C10.1,0,0,10.1,0,22.5S10.1,45,22.5,45S45,34.9,45,22.5S34.9,0,22.5,0z"/>
<circle class="st1" cx="11.8" cy="13.3" r="2.3"/>
<circle class="st1" cx="32.2" cy="15.5" r="2.3"/>
<path class="st1" d="M35.6,20.8c-0.1-0.4-0.3-0.8-0.7-1L32,18.5l-2.4-1.2c-0.1-0.1-0.2-0.1-0.3-0.2l-2-0.9L27,16.2l-3.7-0.8
	c-0.7-0.2-1.3,0.2-1.5,0.9c-0.2,0.7,0.2,1.3,0.9,1.5c0,0,0.1,0,0.1,0l3.6,0.8l1,0.4l-1.3,1.7l-7-2.6c-0.7-0.3-1.6,0.1-1.8,0.8
	c-0.2,0.6,0,1.3,0.5,1.7l-1.2,0.4L15.6,18l0.5-0.1c0.4-0.1,0.8-0.4,0.9-0.8l1.4-3.8c0.2-0.7-0.1-1.4-0.8-1.6
	c-0.7-0.2-1.4,0.1-1.6,0.8l0,0L15,15.5l-0.5,0.2h-0.2c-0.2,0-0.3,0.1-0.4,0.2L12,16.6c-0.6,0.2-0.9,0.8-0.7,1.4c0,0,0,0,0,0l2.5,8
	l0,0l0.3,2.8l-2.5,5.1c-0.3,0.7-0.1,1.6,0.7,1.9c0.7,0.3,1.6,0.1,1.9-0.7l0,0l2.7-5.5c0.1-0.2,0.2-0.5,0.1-0.8l-0.4-4.5l0,0l0.7-0.4
	l0,0l2.2-0.8l2.2,1.9c0.3,0.2,0.6,0.4,0.9,0.4c0.4,0,0.8-0.2,1.1-0.5c0.5-0.6,0.5-1.5-0.1-2l0,0l2.2,0.8l0.3,0.1l0,0
	c0,0.1,0,0.3,0,0.4l0.7,4.8l-0.5,4.9c-0.1,0.8,0.5,1.5,1.3,1.5c0,0,0,0,0,0h0.1c0.8,0,1.4-0.6,1.4-1.3l0.4-5c0-0.1,0-0.2,0-0.3
	l-0.5-3.9l1.3-1.7l1.4-2l1.6,0.7l0.3,2.8c0.1,0.6,0.6,1.1,1.2,1.1h0.2c0.7-0.1,1.2-0.7,1.1-1.4L35.6,20.8z"/>
</svg>
