<svg id="Calque_1" data-name="Calque 1" xmlns="http://www.w3.org/2000/svg" viewBox="0 0 45 45"><defs><style>.cls-1{fill:#17fbd2;}.cls-2{fill:#fff;}</style></defs><title>Plan de travail 1</title><circle class="cls-1" cx="22.5" cy="22.5" r="21"/><path class="cls-2" d="M22.5,3A19.5,19.5,0,1,1,3,22.5,19.53,19.53,0,0,1,22.5,3m0-3A22.5,22.5,0,1,0,45,22.5,22.5,22.5,0,0,0,22.5,0Z"/><circle class="cls-2" cx="12.83" cy="15.08" r="2.08"/><circle class="cls-2" cx="31.58" cy="17.16" r="2.08"/><path class="cls-2" d="M34.69,22.06a1.17,1.17,0,0,0-.67-.92l-2.64-1.2L29.13,18.8a1.2,1.2,0,0,0-.27-.16L27,17.85l-.22-.07-3.4-.71a1.15,1.15,0,1,0-.47,2.25l3.29.69.9.39L25.92,22l-6.44-2.36a1.31,1.31,0,0,0-1.25,2.28l-1.12.41-.77-2.87.42-.09a1.13,1.13,0,0,0,.84-.74l1.28-3.54a1.15,1.15,0,0,0-2.17-.78l-1,2.87-.47.17-.17,0a1.32,1.32,0,0,0-.4.18L13,18.17a1,1,0,0,0-.63,1.28l2.3,7.34h0l.24,2.55-2.31,4.73a1.31,1.31,0,1,0,2.36,1.15l2.48-5.06a1.31,1.31,0,0,0,.13-.7l-.39-4.16h0l.64-.39h0l2-.73,2,1.72a1.31,1.31,0,0,0,.87.33,1.35,1.35,0,0,0,1-.45,1.32,1.32,0,0,0-.12-1.86h0l2,.73.25.07,0,0a1,1,0,0,0,0,.35l.61,4.45L26,34a1.3,1.3,0,0,0,1.22,1.4h.09a1.31,1.31,0,0,0,1.31-1.23L29,29.57a1.22,1.22,0,0,0,0-.27l-.5-3.62,1.19-1.55L31,22.31l1.47.66.31,2.6a1.15,1.15,0,0,0,1.14,1h.14a1.16,1.16,0,0,0,1-1.28Z"/></svg>