<svg id="Calque_1" data-name="Calque 1" xmlns="http://www.w3.org/2000/svg" viewBox="0 0 45 45"><defs><style>.cls-1{fill:#17fbd2;}.cls-2{fill:#fff;}</style></defs><title>Plan de travail 1</title><circle class="cls-1" cx="22.5" cy="22.5" r="21"/><path class="cls-2" d="M22.5,3A19.5,19.5,0,1,1,3,22.5,19.53,19.53,0,0,1,22.5,3m0-3A22.5,22.5,0,1,0,45,22.5,22.5,22.5,0,0,0,22.5,0Z"/><path class="cls-2" d="M34.15,15H23.42a.51.51,0,0,0-.51.5v17a.51.51,0,0,0,.51.5H34.15a.5.5,0,0,0,.5-.5v-17A.5.5,0,0,0,34.15,15Zm-9.06,9.92A.94.94,0,1,1,26,24,.95.95,0,0,1,25.09,24.92Z"/><path class="cls-2" d="M10.55,30.66a.51.51,0,0,0,.5.41h.1l3.19-.66a.5.5,0,0,0,.4-.46l.15-2.17,1.63,1.81-.43,2.71a.5.5,0,0,0,.41.58l.76.12h.08a.49.49,0,0,0,.49-.42l.52-3.31a.5.5,0,0,0-.12-.42L16.3,26.69,17.49,25l.08,1a.41.41,0,0,0,.2.33l2.13,1.38a.47.47,0,0,0,.27.08.53.53,0,0,0,.43-.22L21,27a.5.5,0,0,0-.14-.69l-1.59-1L19.1,23a.51.51,0,0,0-.2-.37l-1.84-1.33a.56.56,0,0,0-.24-.1l-3.58-.39h-.06a.5.5,0,0,0-.48.37L12,23.61a.51.51,0,0,0,.35.62l.74.2a.32.32,0,0,0,.14,0,.5.5,0,0,0,.48-.36l.4-1.45,1.61.18L13.3,26.06a.45.45,0,0,0-.1.27L13,28.86l-2.25.46a.51.51,0,0,0-.39.59Z"/><circle class="cls-2" cx="19.65" cy="19.53" r="2.05"/></svg>