<?xml version="1.0" encoding="utf-8"?>
<!-- Generator: Adobe Illustrator 22.0.1, SVG Export Plug-In . SVG Version: 6.00 Build 0)  -->
<svg version="1.1" id="Calque_1" xmlns="http://www.w3.org/2000/svg" xmlns:xlink="http://www.w3.org/1999/xlink" x="0px" y="0px"
	 viewBox="0 0 45 45" style="enable-background:new 0 0 45 45;" xml:space="preserve">
<style type="text/css">
	.st0{fill:#1562E0;}
	.st1{fill:#FFFFFF;}
</style>
<title>Plan de travail 1</title>
<circle class="st0" cx="22.5" cy="22.5" r="21"/>
<path class="st1" d="M22.5,3C33.3,3,42,11.7,42,22.5S33.3,42,22.5,42S3,33.3,3,22.5C3,11.7,11.7,3,22.5,3 M22.5,0
	C10.1,0,0,10.1,0,22.5S10.1,45,22.5,45S45,34.9,45,22.5S34.9,0,22.5,0z"/>
<path class="st1" d="M36,12H23.3c-0.3,0-0.6,0.3-0.6,0.6v20.2c0,0.3,0.3,0.6,0.6,0.6H36c0.3,0,0.6-0.3,0.6-0.6V12.6
	C36.6,12.3,36.3,12,36,12z M25.2,23.8c-0.6,0-1.1-0.5-1.2-1.1c0-0.6,0.5-1.1,1.1-1.2c0.6,0,1.1,0.5,1.2,1.1c0,0,0,0,0,0.1
	C26.3,23.3,25.8,23.7,25.2,23.8z"/>
<path class="st1" d="M8,30.6c0.1,0.3,0.3,0.5,0.6,0.5h0.1l3.8-0.8c0.3-0.1,0.5-0.3,0.5-0.5l0.2-2.6l1.9,2.1l-0.5,3.2
	c-0.1,0.3,0.2,0.6,0.5,0.7c0,0,0,0,0,0l0.9,0.1H16c0.3,0,0.5-0.2,0.6-0.5l0.6-3.9c0-0.2,0-0.4-0.1-0.5l-2.3-2.6l1.4-2l0.1,1.2
	c0,0.2,0.1,0.3,0.2,0.4l2.5,1.6c0.1,0.1,0.2,0.1,0.3,0.1c0.2,0,0.4-0.1,0.5-0.3l0.5-0.7c0.2-0.3,0.1-0.6-0.2-0.8l-1.9-1.2l-0.2-2.7
	c0-0.2-0.1-0.3-0.2-0.4l-2.2-1.6c-0.1-0.1-0.2-0.1-0.3-0.1l-4.2-0.5h-0.1c-0.3,0-0.5,0.2-0.6,0.4l-0.8,2.9c-0.1,0.3,0.1,0.6,0.4,0.7
	l0.9,0.2c0.1,0,0.1,0,0.2,0c0.3,0,0.5-0.2,0.6-0.4l0.5-1.7l1.9,0.2l-2.9,3.9c-0.1,0.1-0.1,0.2-0.1,0.3l-0.2,3L8.2,29
	c-0.3,0.1-0.5,0.4-0.5,0.7L8,30.6z"/>
<circle class="st1" cx="18.8" cy="17.4" r="2.4"/>
</svg>
