<?xml version="1.0" encoding="utf-8"?>
<!-- Generator: Adobe Illustrator 22.0.1, SVG Export Plug-In . SVG Version: 6.00 Build 0)  -->
<svg version="1.1" id="Calque_1" xmlns="http://www.w3.org/2000/svg" xmlns:xlink="http://www.w3.org/1999/xlink" x="0px" y="0px"
	 viewBox="0 0 45 45" style="enable-background:new 0 0 45 45;" xml:space="preserve">
<style type="text/css">
	.st0{fill:#E4463A;}
	.st1{fill:#FFFFFF;}
	.st2{fill:none;}
</style>
<title>Plan de travail 1</title>
<circle class="st0" cx="22.5" cy="22.5" r="21"/>
<path class="st1" d="M22.5,3C33.3,3,42,11.7,42,22.5S33.3,42,22.5,42S3,33.3,3,22.5C3,11.7,11.7,3,22.5,3 M22.5,0
	C10.1,0,0,10.1,0,22.5S10.1,45,22.5,45S45,34.9,45,22.5S34.9,0,22.5,0z"/>
<path class="st1" d="M28.2,33.5h1.8c0.9,0,1.6-0.6,1.7-1.5l1.8-16.9h-5.3v-4.3H26v4.3h-5.3l0.3,2.4c1.7,0.4,3.2,1.2,4.6,2.3
	c1.6,1.3,2.6,3.3,2.6,5.4L28.2,33.5z M10.8,32.5v-1.2H26v1.1c0,0.6-0.4,1-1,1H11.9C11.3,33.5,10.9,33.1,10.8,32.5
	C10.8,32.5,10.8,32.5,10.8,32.5L10.8,32.5z M26.1,24.9c0-8.3-15.6-8.3-15.6,0H26.1z M10.8,27H26v2.2H10.8V27z"/>
<path class="st2" d="M10,12h25v25H10V12z"/>
</svg>
