<?xml version="1.0" encoding="utf-8"?>
<!-- Generator: Adobe Illustrator 22.0.1, SVG Export Plug-In . SVG Version: 6.00 Build 0)  -->
<svg version="1.1" id="Calque_1" xmlns="http://www.w3.org/2000/svg" xmlns:xlink="http://www.w3.org/1999/xlink" x="0px" y="0px"
	 viewBox="0 0 71.8 101.2" style="enable-background:new 0 0 71.8 101.2;" xml:space="preserve">
<style type="text/css">
	.st0{fill:#F93D31;}
	.st1{fill:#FFF594;}
	.st2{fill:#B70400;}
	.st3{opacity:0.5;fill:#C60000;}
</style>
<g>
	<path class="st0" d="M71.1,29.4c0,30.4-29.4,56.3-30.7,57.5c0,0-0.1,0-0.1,0h-8.4c0,0-10.2-8.7-18.9-22.1
		C6.6,54.9,1.1,42.6,1.1,29.4c0-31.2,35-28.8,35-28.8S59.5-1,68,15.4C70,19.1,71.1,23.6,71.1,29.4z"/>
	<path class="st1" d="M33.4,86.9c0,0-25-22.3-28.5-52.9S36.1,0.6,36.1,0.6s-26,5.6-23.6,33.1c2.3,27.5,22.8,53.2,22.8,53.2H33.4z"/>
	<path class="st1" d="M39.1,86.9c0,0,25-22.3,28.5-52.9S36.4,0.6,36.4,0.6s26,5.6,23.6,33.1c-2.3,27.5-22.8,53.2-22.8,53.2H39.1z"/>
	<path class="st1" d="M35.3,86.9c0,0-5.4-28.8-4.4-53.8c1-25,5.2-32.5,5.2-32.5s4.5,10.5,4.5,33.4s-3.5,52.9-3.5,52.9H35.3z"/>
	<polygon class="st2" points="31.3,90.1 32.8,100.6 39.8,100.6 40.9,90.7 	"/>
	<polygon class="st2" points="31.9,86.9 33.6,94.1 34.2,94.1 32.8,86.9 	"/>
	<polygon class="st2" points="40.3,86.9 39.1,94.3 38.4,94.2 39.4,86.9 	"/>
	<path class="st3" d="M71.1,29.4c0,30.4-29.4,56.3-30.7,57.5l-0.1,0h-8.4c0,0-10.2-8.7-18.9-22.1c0,0,20.6-3.2,39.1-22.2
		C67,27.4,68.2,18.4,68,15.4C70,19.1,71.1,23.6,71.1,29.4z"/>
</g>
</svg>
