<?xml version="1.0" encoding="utf-8"?>
<!-- Generator: Adobe Illustrator 22.0.1, SVG Export Plug-In . SVG Version: 6.00 Build 0)  -->
<svg version="1.1" id="Calque_1" xmlns="http://www.w3.org/2000/svg" xmlns:xlink="http://www.w3.org/1999/xlink" x="0px" y="0px"
	 viewBox="0 0 35.2 50" style="enable-background:new 0 0 35.2 50;" xml:space="preserve">
<style type="text/css">
	.st0{opacity:0.7;}
	.st1{fill:#F93D31;}
	.st2{fill:#FFF594;}
	.st3{fill:#B70400;}
	.st4{opacity:0.5;fill:#C60000;}
</style>
<g class="st0">
	<path class="st1" d="M159.9,413.3c0,15.1-14.5,27.8-15.2,28.4c0,0,0,0,0,0h-4.2c0,0-5-4.3-9.3-10.9c-3.2-4.9-5.9-11-5.9-17.5
		c0-15.4,17.3-14.2,17.3-14.2s11.5-0.8,15.8,7.3C159.4,408.2,159.9,410.5,159.9,413.3z"/>
	<path class="st2" d="M141.3,441.7c0,0-12.4-11-14.1-26.1s15.4-16.5,15.4-16.5s-12.8,2.8-11.7,16.4c1.2,13.6,11.3,26.3,11.3,26.3
		H141.3z"/>
	<path class="st2" d="M144.1,441.7c0,0,12.4-11,14.1-26.1s-15.4-16.5-15.4-16.5s12.8,2.8,11.7,16.4c-1.2,13.6-11.3,26.3-11.3,26.3
		H144.1z"/>
	<path class="st2" d="M142.2,441.7c0,0-2.7-14.2-2.2-26.6c0.5-12.4,2.6-16.1,2.6-16.1s2.2,5.2,2.2,16.5s-1.7,26.1-1.7,26.1H142.2z"
		/>
	<polygon class="st3" points="140.2,443.3 141,448.5 144.4,448.5 145,443.6 	"/>
	<polygon class="st3" points="140.5,441.7 141.4,445.3 141.7,445.3 141,441.7 	"/>
	<polygon class="st3" points="144.7,441.7 144.1,445.4 143.8,445.4 144.2,441.7 	"/>
	<path class="st4" d="M159.9,413.3c0,15.1-14.5,27.8-15.2,28.4l-0.1,0h-4.1c0,0-5-4.3-9.3-10.9c0,0,10.2-1.6,19.3-11
		c7.3-7.5,7.9-12,7.9-13.5C159.4,408.2,159.9,410.5,159.9,413.3z"/>
</g>
<g class="st0">
	<path class="st1" d="M34.9,14.3c0,15.1-14.5,27.8-15.2,28.4c0,0,0,0,0,0h-4.2c0,0-5-4.3-9.3-10.9c-3.2-4.9-5.9-11-5.9-17.5
		C0.3-1.1,17.6,0.1,17.6,0.1s11.5-0.8,15.8,7.3C34.4,9.2,34.9,11.5,34.9,14.3z"/>
	<path class="st2" d="M16.3,42.7c0,0-12.4-11-14.1-26.2S17.6,0.1,17.6,0.1S4.8,2.8,5.9,16.4s11.3,26.3,11.3,26.3H16.3z"/>
	<path class="st2" d="M19.1,42.7c0,0,12.4-11,14.1-26.2C34.9,1.5,17.8,0.1,17.8,0.1s12.8,2.8,11.7,16.4C28.3,30,18.2,42.7,18.2,42.7
		H19.1z"/>
	<path class="st2" d="M17.2,42.7c0,0-2.7-14.2-2.2-26.6c0.5-12.4,2.6-16.1,2.6-16.1s2.2,5.2,2.2,16.5s-1.7,26.2-1.7,26.2H17.2z"/>
	<polygon class="st3" points="15.2,44.3 16,49.5 19.4,49.5 20,44.6 	"/>
	<polygon class="st3" points="15.5,42.7 16.4,46.3 16.7,46.3 16,42.7 	"/>
	<polygon class="st3" points="19.7,42.7 19.1,46.4 18.8,46.4 19.2,42.7 	"/>
	<path class="st4" d="M34.9,14.3c0,15.1-14.5,27.8-15.2,28.4l-0.1,0h-4.1c0,0-5-4.3-9.3-10.9c0,0,10.2-1.6,19.3-11
		c7.3-7.5,7.9-12,7.9-13.5C34.4,9.2,34.9,11.5,34.9,14.3z"/>
</g>
</svg>
