<?xml version="1.0" encoding="utf-8"?>
<!-- Generator: Adobe Illustrator 22.0.1, SVG Export Plug-In . SVG Version: 6.00 Build 0)  -->
<svg version="1.1" id="Calque_1" xmlns="http://www.w3.org/2000/svg" xmlns:xlink="http://www.w3.org/1999/xlink" x="0px" y="0px"
	 viewBox="0 0 45 45" style="enable-background:new 0 0 45 45;" xml:space="preserve">
<style type="text/css">
	.st0{opacity:0.5;}
	.st1{fill:#007975;}
	.st2{fill:#38F4E4;}
	.st3{fill:#B70400;}
	.st4{opacity:0.29;fill:#00255B;}
</style>
<g class="st0">
	<path class="st1" d="M39.3,13.1c0,13.5-13.1,25-13.7,25.6c0,0,0,0,0,0h-3.8c0,0-4.5-3.9-8.4-9.8c-2.8-4.4-5.3-9.9-5.3-15.8
		C8.1-0.7,23.7,0.3,23.7,0.3s10.4-0.7,14.2,6.6C38.8,8.6,39.3,10.6,39.3,13.1z"/>
	<path class="st2" d="M22.5,38.7c0,0-11.1-9.9-12.7-23.5C8.3,1.6,23.7,0.3,23.7,0.3S12.2,2.8,13.2,15.1s10.1,23.6,10.1,23.6H22.5z"
		/>
	<path class="st2" d="M25,38.7c0,0,11.1-9.9,12.7-23.5C39.3,1.6,23.8,0.3,23.8,0.3s11.5,2.5,10.5,14.7S24.2,38.7,24.2,38.7H25z"/>
	<path class="st2" d="M23.3,38.7c0,0-2.4-12.8-2-23.9c0.4-11.1,2.3-14.5,2.3-14.5s2,4.7,2,14.9s-1.6,23.5-1.6,23.5H23.3z"/>
	<polygon class="st3" points="21.6,40.2 22.2,44.8 25.3,44.8 25.8,40.4 	"/>
	<polygon class="st3" points="21.8,38.7 22.6,41.9 22.8,41.9 22.2,38.7 	"/>
	<polygon class="st3" points="25.6,38.7 25,42 24.7,42 25.1,38.7 	"/>
	<path class="st4" d="M39.3,13.1c0,13.5-13.1,25-13.7,25.6l-0.1,0h-3.7c0,0-4.5-3.9-8.4-9.8c0,0,9.1-1.4,17.4-9.9
		c6.6-6.7,7.1-10.8,7.1-12.1C38.8,8.6,39.3,10.6,39.3,13.1z"/>
</g>
</svg>
