<?xml version="1.0" encoding="utf-8"?>
<!-- Generator: Adobe Illustrator 22.0.1, SVG Export Plug-In . SVG Version: 6.00 Build 0)  -->
<svg version="1.1" id="Calque_1" xmlns="http://www.w3.org/2000/svg" xmlns:xlink="http://www.w3.org/1999/xlink" x="0px" y="0px"
	 viewBox="0 0 257.7 259.1" style="enable-background:new 0 0 257.7 259.1;" xml:space="preserve">
<style type="text/css">
	.st0{display:none;fill:#7A1B53;}
	.st1{display:none;fill:#38F4E4;}
	.st2{fill:#7A1B53;}
	.st3{fill:#38F4E4;}
	.st4{fill:#F48537;}
	.st5{fill:#F496CD;}
</style>
<g>
	<path class="st0" d="M127.5,1.9C65.9,1.9,16,51.7,16,113.3s49.9,111.4,111.4,111.4c61.5,0,111.4-49.9,111.4-111.4
		S189,1.9,127.5,1.9z M127.5,222.5c-60.3,0-109.3-48.9-109.3-109.3S67.1,4,127.5,4c60.3,0,109.3,48.9,109.3,109.3
		S187.8,222.5,127.5,222.5z"/>
	<path class="st0" d="M127.5,40.1c-40.4,0-73.2,32.8-73.2,73.2s32.8,73.2,73.2,73.2c40.4,0,73.2-32.8,73.2-73.2
		S167.9,40.1,127.5,40.1z M127.5,183.3c-38.7,0-70.1-31.4-70.1-70.1s31.4-70.1,70.1-70.1c38.7,0,70.1,31.4,70.1,70.1
		S166.2,183.3,127.5,183.3z"/>
	<path class="st0" d="M127.5,82.6c-17,0-30.7,13.8-30.7,30.7s13.8,30.7,30.7,30.7c17,0,30.7-13.8,30.7-30.7S144.4,82.6,127.5,82.6z
		 M127.5,142.7c-16.2,0-29.4-13.2-29.4-29.4s13.2-29.4,29.4-29.4c16.2,0,29.4,13.2,29.4,29.4S143.7,142.7,127.5,142.7z"/>
	<polygon class="st0" points="236.5,112.4 127.5,112.4 127.5,113.3 236.5,115.2 	"/>
	<polygon class="st0" points="18.7,112.4 127.5,112.4 127.5,113.3 18,115.9 	"/>
	<polygon class="st0" points="127,109.9 121.8,4 125.9,4 128.5,109.9 	"/>
	<polygon class="st0" points="182.3,17.4 127.5,112.4 129.4,112.4 185.3,18 	"/>
	<polygon class="st0" points="221.1,58.3 129.1,111.2 132.2,114.3 221.1,60.7 	"/>
	<polygon class="st0" points="72.7,20.1 127.5,112.4 125.5,112.4 70.2,20.1 	"/>
	<polygon class="st0" points="31.5,58.3 127.5,112.4 127.5,114.2 30.8,62.8 	"/>
	<polygon class="st0" points="125.2,116.4 126.3,222.4 129.1,222.4 129.1,117 	"/>
	<polygon class="st0" points="32.6,167.5 127.5,112.4 127.7,113.5 33.5,170.8 	"/>
	<polygon class="st0" points="133.6,115.2 228.2,159.8 227.9,161.8 129.1,115.9 	"/>
	<polygon class="st0" points="186.3,202.3 127.5,115.9 129.1,115.9 190.5,202.3 	"/>
	<polygon class="st0" points="68.6,202.3 127.5,112.4 127.5,114.2 70.2,205.7 	"/>
	
		<ellipse transform="matrix(0.7528 -0.6582 0.6582 0.7528 -43.056 111.8992)" class="st0" cx="127.5" cy="113.3" rx="18.6" ry="18.6"/>
	<circle class="st1" cx="127.5" cy="113.3" r="17.2"/>
	<circle class="st0" cx="127.5" cy="113.3" r="7.3"/>
	<circle class="st0" cx="18.2" cy="114.2" r="4.3"/>
	<g>
		<polygon class="st2" points="20.5,193.3 47,194.6 46.7,194.9 20.5,194.1 		"/>
		<polygon class="st2" points="15,180.1 33.6,169.4 53.6,180.1 		"/>
		<polygon class="st3" points="33.6,169.4 22.3,180.1 28,180.1 		"/>
		<polygon class="st3" points="46.5,180.1 33.6,169.4 39.5,180.1 		"/>
		<polygon class="st2" points="18.3,180.1 20.9,202.2 45.6,202.2 50.1,180.1 48.8,180.2 45,201.5 21.4,200.6 19.8,180.1 		"/>
		<polygon class="st2" points="18.4,180.7 49.8,181.4 50.1,180.1 18.3,180.1 		"/>
		<polygon class="st4" points="20.5,189.1 22.3,188.2 24,195.5 30.5,196 30.5,197.3 21.3,198.8 		"/>
		<polygon class="st4" points="45.5,198.4 35.3,197.3 35.3,195.9 43,195.2 44.5,188.2 47,190.3 		"/>
		<polygon class="st2" points="20.2,203.5 19.3,199.6 47.8,200.7 47,203.5 		"/>
		<polygon class="st2" points="20.5,191.7 32.7,192.8 31.5,199.9 30.8,200 31.9,193.5 20.3,192.8 		"/>
		<polygon class="st2" points="47,191.7 35.7,193.1 36.6,200 37.2,200.5 36.1,193.5 47,192.7 		"/>
		<polygon class="st5" points="18.9,198.4 48.2,197.1 47.8,200.7 19.3,199.6 		"/>
	</g>
	<circle class="st0" cx="33.4" cy="168.4" r="4.3"/>
	<g>
		<polygon class="st2" points="5.1,139.2 31.5,140.5 31.3,140.8 5.1,140 		"/>
		<polygon class="st2" points="-0.4,126.1 18.2,115.3 38.1,126.1 		"/>
		<polygon class="st3" points="18.2,115.3 6.8,126.1 12.5,126.1 		"/>
		<polygon class="st3" points="31,126.1 18.2,115.3 24.1,126.1 		"/>
		<polygon class="st2" points="2.9,126.1 5.4,148.1 30.2,148.1 34.7,126.1 33.4,126.1 29.5,147.4 6,146.5 4.4,126.1 		"/>
		<polygon class="st2" points="3,126.6 34.4,127.3 34.7,126.1 2.9,126.1 		"/>
		<polygon class="st4" points="5.1,135 6.9,134.1 8.5,141.4 15,141.9 15,143.2 5.8,144.7 		"/>
		<polygon class="st4" points="30.1,144.3 19.9,143.2 19.9,141.8 27.6,141.1 29.1,134.1 31.5,136.2 		"/>
		<polygon class="st2" points="4.7,149.4 3.9,145.5 32.4,146.6 31.5,149.4 		"/>
		<polygon class="st2" points="5.1,137.6 17.3,138.7 16.1,145.8 15.4,145.9 16.5,139.4 4.9,138.7 		"/>
		<polygon class="st2" points="31.5,137.6 20.3,139 21.1,145.9 21.7,146.4 20.7,139.4 31.5,138.6 		"/>
		<polygon class="st5" points="3.5,144.3 32.8,143 32.4,146.6 3.9,145.5 		"/>
	</g>
	<path class="st0" d="M22.3,114.3c0,2.4-1.9,4.3-4.3,4.3s-4.3-1.9-4.3-4.3c0-2.4,1.9-4.3,4.3-4.3S22.3,111.9,22.3,114.3z"/>
	<g>
		<polygon class="st2" points="17.3,85 43.7,86.2 43.5,86.5 17.3,85.8 		"/>
		<polygon class="st2" points="11.8,71.8 30.4,61 50.3,71.8 		"/>
		<polygon class="st3" points="30.4,61 19,71.8 24.7,71.8 		"/>
		<polygon class="st3" points="43.2,71.8 30.4,61 36.3,71.8 		"/>
		<polygon class="st2" points="15.1,71.8 17.6,93.8 42.4,93.8 46.8,71.8 45.5,71.8 41.7,93.2 18.1,92.3 16.6,71.8 		"/>
		<polygon class="st2" points="15.1,72.4 46.6,73 46.8,71.8 15.1,71.8 		"/>
		<polygon class="st4" points="17.3,80.7 19,79.9 20.7,87.1 27.2,87.6 27.2,88.9 18,90.5 		"/>
		<polygon class="st4" points="42.2,90 32,88.9 32,87.6 39.7,86.9 41.2,79.9 43.7,82 		"/>
		<polygon class="st2" points="16.9,95.2 16,91.3 44.6,92.3 43.7,95.2 		"/>
		<polygon class="st2" points="17.3,83.4 29.4,84.4 28.2,91.6 27.5,91.6 28.6,85.2 17,84.4 		"/>
		<polygon class="st2" points="43.7,83.4 32.4,84.7 33.3,91.6 33.9,92.1 32.9,85.2 43.7,84.4 		"/>
		<polygon class="st5" points="15.6,88.8 45.9,88.8 44.6,92.3 16,91.3 		"/>
	</g>
	<path class="st0" d="M34.5,60c0,2.4-1.9,4.3-4.3,4.3c-2.4,0-4.3-1.9-4.3-4.3c0-2.4,1.9-4.3,4.3-4.3C32.6,55.7,34.5,57.6,34.5,60z"
		/>
	<g>
		<polygon class="st2" points="57.1,44.2 83.5,45.4 83.3,45.7 57.1,44.9 		"/>
		<polygon class="st2" points="51.6,31 70.2,20.2 90.1,31 		"/>
		<polygon class="st3" points="70.2,20.2 58.8,31 64.5,31 		"/>
		<polygon class="st3" points="83,31 70.2,20.2 76.1,31 		"/>
		<polygon class="st2" points="54.9,31 57.4,53 82.2,53 86.7,31 85.3,31 81.5,52.4 58,51.5 56.4,31 		"/>
		<polygon class="st2" points="55,31.6 86.4,32.2 86.7,31 54.9,31 		"/>
		<polygon class="st4" points="57.1,39.9 58.9,39.1 60.5,46.3 67,46.8 67,48.1 57.8,49.6 		"/>
		<polygon class="st4" points="82.1,49.2 71.9,48.1 71.9,46.8 79.6,46 81.1,39.1 83.5,41.2 		"/>
		<polygon class="st2" points="56.7,54.4 55.9,50.5 84.4,51.5 83.5,54.4 		"/>
		<polygon class="st2" points="57.1,42.6 69.3,43.6 68.1,50.8 67.3,50.8 68.5,44.4 56.9,43.6 		"/>
		<polygon class="st2" points="83.5,42.6 72.3,43.9 73.1,50.8 73.7,51.3 72.7,44.4 83.5,43.6 		"/>
		<polygon class="st5" points="55.2,48.5 84.8,48 84.4,51.5 55.9,50.5 		"/>
	</g>
	<path class="st0" d="M74.3,19.2c0,2.4-1.9,4.3-4.3,4.3c-2.4,0-4.3-1.9-4.3-4.3c0-2.4,1.9-4.3,4.3-4.3
		C72.4,14.9,74.3,16.8,74.3,19.2z"/>
	<g>
		<polygon class="st2" points="111.4,29.6 137.8,30.8 137.6,31.2 111.4,30.4 		"/>
		<polygon class="st2" points="105.9,16.4 124.5,5.6 144.4,16.4 		"/>
		<polygon class="st3" points="124.5,5.6 113.1,16.4 118.8,16.4 		"/>
		<polygon class="st3" points="137.3,16.4 124.5,5.6 130.4,16.4 		"/>
		<polygon class="st2" points="109.2,16.4 111.7,38.4 136.5,38.4 140.9,16.4 139.6,16.4 135.8,37.8 112.3,36.9 110.7,16.4 		"/>
		<polygon class="st2" points="109.3,17 140.7,17.6 140.9,16.4 109.2,16.4 		"/>
		<polygon class="st4" points="111.4,25.3 113.2,24.5 114.8,31.7 121.3,32.2 121.3,33.5 112.1,35.1 		"/>
		<polygon class="st4" points="136.4,34.6 126.2,33.5 126.2,32.2 133.8,31.5 135.3,24.5 137.8,26.6 		"/>
		<polygon class="st2" points="111,39.8 110.2,35.9 138.7,36.9 137.8,39.8 		"/>
		<polygon class="st2" points="111.4,28 123.5,29 122.3,36.2 121.6,36.2 122.8,29.8 111.2,29 		"/>
		<polygon class="st2" points="137.8,28 126.5,29.3 127.4,36.2 128,36.7 127,29.8 137.8,29 		"/>
		<polygon class="st5" points="109.7,33.7 139.1,35.6 138.7,36.9 110.2,35.9 		"/>
	</g>
	<path class="st0" d="M128.6,4.6c0,2.4-1.9,4.3-4.3,4.3C121.9,9,120,7,120,4.6c0-2.4,1.9-4.3,4.3-4.3C126.7,0.3,128.6,2.2,128.6,4.6
		z"/>
	<g>
		<polygon class="st2" points="170.2,43.2 196.6,44.4 196.4,44.8 170.2,44 		"/>
		<polygon class="st2" points="164.7,30 183.3,19.2 203.2,30 		"/>
		<polygon class="st3" points="183.3,19.2 171.9,30 177.6,30 		"/>
		<polygon class="st3" points="196.1,30 183.3,19.2 189.2,30 		"/>
		<polygon class="st2" points="168,30 170.5,52 195.3,52 199.7,30 198.4,30 194.6,51.4 171.1,50.5 169.5,30 		"/>
		<polygon class="st2" points="168.1,30.6 199.5,31.2 199.7,30 168,30 		"/>
		<polygon class="st4" points="170.2,38.9 172,38.1 173.6,45.3 180.1,45.8 180.1,47.1 170.9,48.7 		"/>
		<polygon class="st4" points="195.2,48.2 184.9,47.1 184.9,45.8 192.6,45.1 194.1,38.1 196.6,40.2 		"/>
		<polygon class="st2" points="169.8,53.4 169,49.5 197.5,50.5 196.6,53.4 		"/>
		<polygon class="st2" points="170.2,41.6 182.3,42.6 181.1,49.8 180.4,49.8 181.6,43.4 169.9,42.6 		"/>
		<polygon class="st2" points="196.6,41.6 185.3,42.9 186.2,49.8 186.8,50.3 185.8,43.4 196.6,42.6 		"/>
		<polygon class="st5" points="169,46.4 197.9,47 197.5,50.5 169,49.5 		"/>
	</g>
	<circle class="st0" cx="183.1" cy="18.2" r="4.3"/>
	<g>
		<polygon class="st2" points="208.9,83.7 235.4,85 235.1,85.3 208.9,84.5 		"/>
		<polygon class="st2" points="203.4,70.5 222,59.8 242,70.5 		"/>
		<polygon class="st3" points="222,59.8 210.7,70.5 216.3,70.5 		"/>
		<polygon class="st3" points="234.8,70.5 222,59.8 227.9,70.5 		"/>
		<polygon class="st2" points="206.7,70.5 209.3,92.5 234,92.5 238.5,70.5 237.2,70.6 233.3,91.9 209.8,91 208.2,70.5 		"/>
		<polygon class="st2" points="206.8,71.1 238.2,71.8 238.5,70.5 206.7,70.5 		"/>
		<polygon class="st4" points="208.9,79.5 210.7,78.6 212.3,85.8 218.9,86.4 218.9,87.7 209.7,89.2 		"/>
		<polygon class="st4" points="233.9,88.8 223.7,87.7 223.7,86.3 231.4,85.6 232.9,78.6 235.4,80.7 		"/>
		<polygon class="st2" points="208.6,93.9 207.7,90 236.2,91.1 235.4,93.9 		"/>
		<polygon class="st2" points="208.9,82.1 221.1,83.2 219.9,90.3 219.2,90.4 220.3,83.9 208.7,83.2 		"/>
		<polygon class="st2" points="235.4,82.1 224.1,83.5 225,90.4 225.6,90.8 224.5,83.9 235.4,83.1 		"/>
		<polygon class="st5" points="207.3,88.8 236.6,87.5 236.2,91.1 207.7,90 		"/>
	</g>
	<path class="st0" d="M226.2,58.8c0,2.4-1.9,4.3-4.3,4.3c-2.4,0-4.3-1.9-4.3-4.3c0-2.4,1.9-4.3,4.3-4.3
		C224.2,54.4,226.2,56.4,226.2,58.8z"/>
	<g>
		<polygon class="st2" points="224.7,139.2 251.1,140.5 250.9,140.8 224.7,140 		"/>
		<polygon class="st2" points="219.2,126.1 237.8,115.3 257.7,126.1 		"/>
		<polygon class="st3" points="237.8,115.3 226.4,126.1 232.1,126.1 		"/>
		<polygon class="st3" points="250.6,126.1 237.8,115.3 243.7,126.1 		"/>
		<polygon class="st2" points="222.5,126.1 225,148.1 249.8,148.1 254.3,126.1 253,126.1 249.1,147.4 225.6,146.5 224,126.1 		"/>
		<polygon class="st2" points="222.6,126.6 254,127.3 254.3,126.1 222.5,126.1 		"/>
		<polygon class="st4" points="224.7,135 226.5,134.1 228.1,141.4 234.6,141.9 234.6,143.2 225.4,144.7 		"/>
		<polygon class="st4" points="249.7,144.3 239.5,143.2 239.5,141.8 247.2,141.1 248.7,134.1 251.1,136.2 		"/>
		<polygon class="st2" points="224.3,149.4 223.5,145.5 252,146.6 251.1,149.4 		"/>
		<polygon class="st2" points="224.7,137.6 236.9,138.7 235.7,145.8 235,145.9 236.1,139.4 224.5,138.7 		"/>
		<polygon class="st2" points="251.1,137.6 239.9,139 240.7,145.9 241.3,146.4 240.3,139.4 251.1,138.6 		"/>
		<polygon class="st5" points="222.7,143.2 252.4,143 252,146.6 223.5,145.5 		"/>
	</g>
	<path class="st0" d="M241.9,114.3c0,2.4-1.9,4.3-4.3,4.3c-2.4,0-4.3-1.9-4.3-4.3c0-2.4,1.9-4.3,4.3-4.3
		C240,109.9,241.9,111.9,241.9,114.3z"/>
	<g>
		<polygon class="st2" points="215.7,186.8 242.2,188 242,188.3 215.7,187.6 		"/>
		<polygon class="st2" points="210.3,173.6 228.9,162.8 248.8,173.6 		"/>
		<polygon class="st3" points="228.9,162.8 217.5,173.6 223.2,173.6 		"/>
		<polygon class="st3" points="241.7,173.6 228.9,162.8 234.8,173.6 		"/>
		<polygon class="st2" points="213.6,173.6 216.1,195.6 240.9,195.6 245.3,173.6 244,173.6 240.2,195 216.6,194.1 215.1,173.6 		"/>
		<polygon class="st2" points="213.6,174.2 245.1,174.8 245.3,173.6 213.6,173.6 		"/>
		<polygon class="st4" points="215.7,182.5 217.5,181.7 219.2,188.9 225.7,189.4 225.7,190.7 216.5,192.3 		"/>
		<polygon class="st4" points="240.7,191.8 230.5,190.7 230.5,189.4 238.2,188.7 239.7,181.7 242.2,183.8 		"/>
		<polygon class="st2" points="215.4,197 214.5,193.1 243,194.1 242.2,197 		"/>
		<polygon class="st2" points="215.7,185.2 227.9,186.2 226.7,193.4 226,193.4 227.1,187 215.5,186.2 		"/>
		<polygon class="st2" points="242.2,185.2 230.9,186.5 231.8,193.4 232.4,193.9 231.3,187 242.2,186.2 		"/>
		<polygon class="st5" points="214.1,191.8 243.2,193.1 243,194.1 214.5,193.1 		"/>
	</g>
	<path class="st0" d="M233,161.8c0,2.4-1.9,4.3-4.3,4.3c-2.4,0-4.3-1.9-4.3-4.3c0-2.4,1.9-4.3,4.3-4.3
		C231.1,157.5,233,159.4,233,161.8z"/>
	<g>
		<polygon class="st2" points="175.3,226.4 201.7,227.7 201.5,228 175.3,227.2 		"/>
		<polygon class="st2" points="169.8,213.2 188.4,202.5 208.3,213.2 		"/>
		<polygon class="st3" points="188.4,202.5 177,213.2 182.7,213.2 		"/>
		<polygon class="st3" points="201.2,213.2 188.4,202.5 194.3,213.2 		"/>
		<polygon class="st2" points="173.1,213.2 175.6,235.2 200.4,235.2 204.9,213.2 203.6,213.3 199.7,234.6 176.2,233.7 174.6,213.2 
					"/>
		<polygon class="st2" points="173.2,213.8 204.6,214.5 204.9,213.2 173.1,213.2 		"/>
		<polygon class="st4" points="175.3,222.2 177.1,221.3 178.7,228.5 185.2,229.1 185.2,230.4 176,231.9 		"/>
		<polygon class="st4" points="200.3,231.5 190.1,230.4 190.1,229 197.8,228.3 199.3,221.3 201.7,223.4 		"/>
		<polygon class="st2" points="174.9,236.6 174.1,232.7 202.6,233.8 201.7,236.6 		"/>
		<polygon class="st2" points="175.3,224.8 187.5,225.8 186.3,233 185.5,233.1 186.7,226.6 175.1,225.8 		"/>
		<polygon class="st2" points="201.7,224.8 190.5,226.2 191.3,233.1 191.9,233.5 190.9,226.6 201.7,225.8 		"/>
		<polygon class="st5" points="173.6,231.5 203,230.2 202.6,233.8 174.1,232.7 		"/>
	</g>
	<path class="st0" d="M192.5,201.5c0,2.4-1.9,4.3-4.3,4.3c-2.4,0-4.3-1.9-4.3-4.3s1.9-4.3,4.3-4.3
		C190.6,197.1,192.5,199.1,192.5,201.5z"/>
	<path class="st1" d="M190.1,201.5c0,1-0.8,1.9-1.9,1.9s-1.9-0.8-1.9-1.9s0.8-1.9,1.9-1.9S190.1,200.4,190.1,201.5z"/>
	<path class="st1" d="M230.5,161.8c0,1-0.8,1.9-1.9,1.9c-1,0-1.9-0.8-1.9-1.9s0.8-1.9,1.9-1.9C229.7,160,230.5,160.8,230.5,161.8z"
		/>
	<path class="st1" d="M239.6,114.3c0,1-0.8,1.9-1.9,1.9c-1,0-1.9-0.8-1.9-1.9s0.8-1.9,1.9-1.9C238.8,112.4,239.6,113.2,239.6,114.3z
		"/>
	<path class="st1" d="M223.9,58.8c0,1-0.8,1.9-1.9,1.9s-1.9-0.8-1.9-1.9c0-1,0.8-1.9,1.9-1.9S223.9,57.7,223.9,58.8z"/>
	<path class="st1" d="M184.9,18.2c0,1-0.8,1.9-1.9,1.9c-1,0-1.9-0.8-1.9-1.9s0.8-1.9,1.9-1.9C184.1,16.4,184.9,17.2,184.9,18.2z"/>
	<path class="st1" d="M126.2,4.6c0,1-0.8,1.9-1.9,1.9c-1,0-1.9-0.8-1.9-1.9s0.8-1.9,1.9-1.9C125.3,2.8,126.2,3.6,126.2,4.6z"/>
	<path class="st1" d="M71.9,19.2c0,1-0.8,1.9-1.9,1.9s-1.9-0.8-1.9-1.9s0.8-1.9,1.9-1.9S71.9,18.2,71.9,19.2z"/>
	<path class="st1" d="M32,60c0,1-0.8,1.9-1.9,1.9s-1.9-0.8-1.9-1.9c0-1,0.8-1.9,1.9-1.9S32,59,32,60z"/>
	<path class="st1" d="M19.9,114.3c0,1-0.8,1.9-1.9,1.9c-1,0-1.9-0.8-1.9-1.9s0.8-1.9,1.9-1.9C19,112.4,19.9,113.2,19.9,114.3z"/>
	<path class="st1" d="M35.3,168.4c0,1-0.8,1.9-1.9,1.9c-1,0-1.9-0.8-1.9-1.9s0.8-1.9,1.9-1.9C34.5,166.5,35.3,167.3,35.3,168.4z"/>
	<g>
		<polygon class="st2" points="55.6,230.8 82,232.1 81.8,232.4 55.6,231.6 		"/>
		<polygon class="st2" points="50.1,217.7 68.7,206.9 88.6,217.7 		"/>
		<polygon class="st3" points="68.7,206.9 57.3,217.7 63,217.7 		"/>
		<polygon class="st3" points="81.5,217.7 68.7,206.9 74.6,217.7 		"/>
		<polygon class="st2" points="53.4,217.7 55.9,239.7 80.7,239.7 85.1,217.7 83.8,217.7 80,239 56.5,238.1 54.9,217.7 		"/>
		<polygon class="st2" points="53.5,218.2 84.9,218.9 85.1,217.7 53.4,217.7 		"/>
		<polygon class="st4" points="55.6,226.6 57.4,225.7 59,233 65.5,233.5 65.5,234.8 56.3,236.3 		"/>
		<polygon class="st4" points="80.6,235.9 70.3,234.8 70.3,233.4 78,232.7 79.5,225.7 82,227.8 		"/>
		<polygon class="st2" points="55.2,241.1 54.4,237.1 82.9,238.2 82,241.1 		"/>
		<polygon class="st2" points="55.6,229.2 67.7,230.3 66.5,237.4 65.8,237.5 67,231 55.3,230.3 		"/>
		<polygon class="st2" points="82,229.2 70.7,230.6 71.6,237.5 72.2,238 71.2,231 82,230.2 		"/>
		<polygon class="st5" points="53.9,235.9 83.1,235.9 82.9,238.2 54.4,237.1 		"/>
	</g>
	<circle class="st0" cx="68.5" cy="205.9" r="4.3"/>
	<path class="st1" d="M70.5,205.9c0,1-0.8,1.9-1.9,1.9s-1.9-0.8-1.9-1.9c0-1,0.8-1.9,1.9-1.9S70.5,204.9,70.5,205.9z"/>
	<g>
		<polygon class="st2" points="114.6,247.8 141,249.1 140.8,249.4 114.6,248.6 		"/>
		<polygon class="st2" points="109.1,234.7 127.7,223.9 147.6,234.7 		"/>
		<polygon class="st3" points="127.7,223.9 116.3,234.7 122,234.7 		"/>
		<polygon class="st3" points="140.5,234.7 127.7,223.9 133.6,234.7 		"/>
		<polygon class="st2" points="112.4,234.7 114.9,256.7 139.7,256.7 144.1,234.7 142.8,234.7 139,256 115.5,255.1 113.9,234.7 		"/>
		<polygon class="st2" points="112.5,235.2 143.9,235.9 144.1,234.7 112.4,234.7 		"/>
		<polygon class="st4" points="114.6,243.6 116.4,242.7 118,250 124.5,250.5 124.5,251.8 115.3,253.3 		"/>
		<polygon class="st4" points="139.6,252.9 129.3,251.8 129.3,250.4 137,249.7 138.5,242.7 141,244.8 		"/>
		<polygon class="st2" points="114.2,258.1 113.4,254.1 141.9,255.2 141,258.1 		"/>
		<polygon class="st2" points="114.6,246.2 126.7,247.3 125.5,254.4 124.8,254.5 126,248 114.3,247.3 		"/>
		<polygon class="st2" points="141,246.2 129.7,247.6 130.6,254.5 131.2,255 130.2,248 141,247.2 		"/>
		<polygon class="st5" points="112.9,252.9 142.1,252.9 141.9,255.2 113.4,254.1 		"/>
	</g>
	<path class="st0" d="M132.5,223.5c0,2.4-1.9,4.3-4.3,4.3c-2.4,0-4.3-1.9-4.3-4.3s1.9-4.3,4.3-4.3
		C130.6,219.1,132.5,221.1,132.5,223.5z"/>
	<path class="st1" d="M130.1,223.5c0,1-0.8,1.9-1.9,1.9c-1,0-1.9-0.8-1.9-1.9s0.8-1.9,1.9-1.9C129.2,221.6,130.1,222.4,130.1,223.5z
		"/>
</g>
</svg>
