<?xml version="1.0" encoding="utf-8"?>
<!-- Generator: Adobe Illustrator 22.0.1, SVG Export Plug-In . SVG Version: 6.00 Build 0)  -->
<svg version="1.1" id="Calque_1" xmlns="http://www.w3.org/2000/svg" xmlns:xlink="http://www.w3.org/1999/xlink" x="0px" y="0px"
	 viewBox="0 0 228.7 228.6" style="enable-background:new 0 0 228.7 228.6;" xml:space="preserve">
<style type="text/css">
	.st0{fill:#7A1B53;}
	.st1{fill:#38F4E4;}
	.st2{display:none;}
	.st3{display:inline;fill:#7A1B53;}
	.st4{display:inline;fill:#38F4E4;}
	.st5{display:inline;fill:#F48537;}
	.st6{display:inline;fill:#F496CD;}
</style>
<g>
	<path class="st0" d="M114,1.9C52.4,1.9,2.5,51.7,2.5,113.3S52.4,224.7,114,224.7c61.5,0,111.4-49.9,111.4-111.4S175.5,1.9,114,1.9z
		 M114,222.5c-60.3,0-109.3-48.9-109.3-109.3S53.6,4,114,4c60.3,0,109.3,48.9,109.3,109.3S174.3,222.5,114,222.5z"/>
	<path class="st0" d="M114,40.1c-40.4,0-73.2,32.8-73.2,73.2s32.8,73.2,73.2,73.2c40.4,0,73.2-32.8,73.2-73.2S154.4,40.1,114,40.1z
		 M114,183.3c-38.7,0-70.1-31.4-70.1-70.1S75.3,43.2,114,43.2c38.7,0,70.1,31.4,70.1,70.1S152.7,183.3,114,183.3z"/>
	<path class="st0" d="M114,82.6c-17,0-30.7,13.8-30.7,30.7S97,144,114,144c17,0,30.7-13.8,30.7-30.7S130.9,82.6,114,82.6z
		 M114,142.7c-16.2,0-29.4-13.2-29.4-29.4S97.7,83.9,114,83.9c16.2,0,29.4,13.2,29.4,29.4S130.2,142.7,114,142.7z"/>
	<polygon class="st0" points="223,112.4 114,112.4 114,113.3 223,115.2 	"/>
	<polygon class="st0" points="5.2,112.4 114,112.4 114,113.3 4.5,115.9 	"/>
	<polygon class="st0" points="113.5,109.9 108.3,4 112.4,4 115,109.9 	"/>
	<polygon class="st0" points="168.8,17.4 114,112.4 115.9,112.4 171.8,18 	"/>
	<polygon class="st0" points="207.6,58.3 115.6,111.2 118.7,114.3 207.6,60.7 	"/>
	<polygon class="st0" points="59.2,20.1 114,112.4 112,112.4 56.7,20.1 	"/>
	<polygon class="st0" points="18,58.3 114,112.4 114,114.2 17.3,62.8 	"/>
	<polygon class="st0" points="111.7,116.4 112.8,222.4 115.6,222.4 115.6,117 	"/>
	<polygon class="st0" points="19.1,167.5 114,112.4 114.2,113.5 20,170.8 	"/>
	<polygon class="st0" points="120.1,115.2 214.7,159.8 214.4,161.8 115.6,115.9 	"/>
	<polygon class="st0" points="172.8,202.3 114,115.9 115.6,115.9 177,202.3 	"/>
	<polygon class="st0" points="55.1,202.3 114,112.4 114,114.2 56.7,205.7 	"/>
	
		<ellipse transform="matrix(0.7528 -0.6582 0.6582 0.7528 -46.3931 103.013)" class="st0" cx="114" cy="113.3" rx="18.6" ry="18.6"/>
	<circle class="st1" cx="114" cy="113.3" r="17.2"/>
	<circle class="st0" cx="114" cy="113.3" r="7.3"/>
	<circle class="st0" cx="4.7" cy="114.2" r="4.3"/>
	<g class="st2">
		<polygon class="st3" points="7,193.3 33.5,194.6 33.2,194.9 7,194.1 		"/>
		<polygon class="st3" points="1.5,180.1 20.1,169.4 40.1,180.1 		"/>
		<polygon class="st4" points="20.1,169.4 8.8,180.1 14.5,180.1 		"/>
		<polygon class="st4" points="33,180.1 20.1,169.4 26,180.1 		"/>
		<polygon class="st3" points="4.8,180.1 7.4,202.2 32.1,202.2 36.6,180.1 35.3,180.2 31.5,201.5 7.9,200.6 6.3,180.1 		"/>
		<polygon class="st3" points="4.9,180.7 36.3,181.4 36.6,180.1 4.8,180.1 		"/>
		<polygon class="st5" points="7,189.1 8.8,188.2 10.5,195.5 17,196 17,197.3 7.8,198.8 		"/>
		<polygon class="st5" points="32,198.4 21.8,197.3 21.8,195.9 29.5,195.2 31,188.2 33.5,190.3 		"/>
		<polygon class="st3" points="6.7,203.5 5.8,199.6 34.3,200.7 33.5,203.5 		"/>
		<polygon class="st3" points="7,191.7 19.2,192.8 18,199.9 17.3,200 18.4,193.5 6.8,192.8 		"/>
		<polygon class="st3" points="33.5,191.7 22.2,193.1 23.1,200 23.7,200.5 22.6,193.5 33.5,192.7 		"/>
		<polygon class="st6" points="5.4,198.4 34.7,197.1 34.3,200.7 5.8,199.6 		"/>
	</g>
	<circle class="st0" cx="19.9" cy="168.4" r="4.3"/>
	<g class="st2">
		<polygon class="st3" points="-8.4,139.2 18,140.5 17.8,140.8 -8.4,140 		"/>
		<polygon class="st3" points="-13.9,126.1 4.7,115.3 24.6,126.1 		"/>
		<polygon class="st4" points="4.7,115.3 -6.7,126.1 -1,126.1 		"/>
		<polygon class="st4" points="17.5,126.1 4.7,115.3 10.6,126.1 		"/>
		<polygon class="st3" points="-10.6,126.1 -8.1,148.1 16.7,148.1 21.2,126.1 19.9,126.1 16,147.4 -7.5,146.5 -9.1,126.1 		"/>
		<polygon class="st3" points="-10.5,126.6 20.9,127.3 21.2,126.1 -10.6,126.1 		"/>
		<polygon class="st5" points="-8.4,135 -6.6,134.1 -5,141.4 1.5,141.9 1.5,143.2 -7.7,144.7 		"/>
		<polygon class="st5" points="16.6,144.3 6.4,143.2 6.4,141.8 14.1,141.1 15.6,134.1 18,136.2 		"/>
		<polygon class="st3" points="-8.8,149.4 -9.6,145.5 18.9,146.6 18,149.4 		"/>
		<polygon class="st3" points="-8.4,137.6 3.8,138.7 2.6,145.8 1.9,145.9 3,139.4 -8.6,138.7 		"/>
		<polygon class="st3" points="18,137.6 6.8,139 7.6,145.9 8.2,146.4 7.2,139.4 18,138.6 		"/>
		<polygon class="st6" points="-10,144.3 19.3,143 18.9,146.6 -9.6,145.5 		"/>
	</g>
	<path class="st0" d="M8.8,114.3c0,2.4-1.9,4.3-4.3,4.3s-4.3-1.9-4.3-4.3c0-2.4,1.9-4.3,4.3-4.3S8.8,111.9,8.8,114.3z"/>
	<g class="st2">
		<polygon class="st3" points="3.8,85 30.2,86.2 30,86.5 3.8,85.8 		"/>
		<polygon class="st3" points="-1.7,71.8 16.9,61 36.8,71.8 		"/>
		<polygon class="st4" points="16.9,61 5.5,71.8 11.2,71.8 		"/>
		<polygon class="st4" points="29.7,71.8 16.9,61 22.8,71.8 		"/>
		<polygon class="st3" points="1.6,71.8 4.1,93.8 28.9,93.8 33.3,71.8 32,71.8 28.2,93.2 4.6,92.3 3.1,71.8 		"/>
		<polygon class="st3" points="1.6,72.4 33.1,73 33.3,71.8 1.6,71.8 		"/>
		<polygon class="st5" points="3.8,80.7 5.5,79.9 7.2,87.1 13.7,87.6 13.7,88.9 4.5,90.5 		"/>
		<polygon class="st5" points="28.7,90 18.5,88.9 18.5,87.6 26.2,86.9 27.7,79.9 30.2,82 		"/>
		<polygon class="st3" points="3.4,95.2 2.5,91.3 31.1,92.3 30.2,95.2 		"/>
		<polygon class="st3" points="3.8,83.4 15.9,84.4 14.7,91.6 14,91.6 15.1,85.2 3.5,84.4 		"/>
		<polygon class="st3" points="30.2,83.4 18.9,84.7 19.8,91.6 20.4,92.1 19.4,85.2 30.2,84.4 		"/>
		<polygon class="st6" points="2.1,88.8 32.4,88.8 31.1,92.3 2.5,91.3 		"/>
	</g>
	<path class="st0" d="M21,60c0,2.4-1.9,4.3-4.3,4.3c-2.4,0-4.3-1.9-4.3-4.3c0-2.4,1.9-4.3,4.3-4.3C19.1,55.7,21,57.6,21,60z"/>
	<g class="st2">
		<polygon class="st3" points="43.6,44.2 70,45.4 69.8,45.7 43.6,44.9 		"/>
		<polygon class="st3" points="38.1,31 56.7,20.2 76.6,31 		"/>
		<polygon class="st4" points="56.7,20.2 45.3,31 51,31 		"/>
		<polygon class="st4" points="69.5,31 56.7,20.2 62.6,31 		"/>
		<polygon class="st3" points="41.4,31 43.9,53 68.7,53 73.2,31 71.8,31 68,52.4 44.5,51.5 42.9,31 		"/>
		<polygon class="st3" points="41.5,31.6 72.9,32.2 73.2,31 41.4,31 		"/>
		<polygon class="st5" points="43.6,39.9 45.4,39.1 47,46.3 53.5,46.8 53.5,48.1 44.3,49.6 		"/>
		<polygon class="st5" points="68.6,49.2 58.4,48.1 58.4,46.8 66.1,46 67.6,39.1 70,41.2 		"/>
		<polygon class="st3" points="43.2,54.4 42.4,50.5 70.9,51.5 70,54.4 		"/>
		<polygon class="st3" points="43.6,42.6 55.8,43.6 54.6,50.8 53.8,50.8 55,44.4 43.4,43.6 		"/>
		<polygon class="st3" points="70,42.6 58.8,43.9 59.6,50.8 60.2,51.3 59.2,44.4 70,43.6 		"/>
		<polygon class="st6" points="41.7,48.5 71.3,48 70.9,51.5 42.4,50.5 		"/>
	</g>
	<path class="st0" d="M60.8,19.2c0,2.4-1.9,4.3-4.3,4.3c-2.4,0-4.3-1.9-4.3-4.3c0-2.4,1.9-4.3,4.3-4.3
		C58.9,14.9,60.8,16.8,60.8,19.2z"/>
	<g class="st2">
		<polygon class="st3" points="97.9,29.6 124.3,30.8 124.1,31.2 97.9,30.4 		"/>
		<polygon class="st3" points="92.4,16.4 111,5.6 130.9,16.4 		"/>
		<polygon class="st4" points="111,5.6 99.6,16.4 105.3,16.4 		"/>
		<polygon class="st4" points="123.8,16.4 111,5.6 116.9,16.4 		"/>
		<polygon class="st3" points="95.7,16.4 98.2,38.4 123,38.4 127.4,16.4 126.1,16.4 122.3,37.8 98.8,36.9 97.2,16.4 		"/>
		<polygon class="st3" points="95.8,17 127.2,17.6 127.4,16.4 95.7,16.4 		"/>
		<polygon class="st5" points="97.9,25.3 99.7,24.5 101.3,31.7 107.8,32.2 107.8,33.5 98.6,35.1 		"/>
		<polygon class="st5" points="122.9,34.6 112.7,33.5 112.7,32.2 120.3,31.5 121.8,24.5 124.3,26.6 		"/>
		<polygon class="st3" points="97.5,39.8 96.7,35.9 125.2,36.9 124.3,39.8 		"/>
		<polygon class="st3" points="97.9,28 110,29 108.8,36.2 108.1,36.2 109.3,29.8 97.7,29 		"/>
		<polygon class="st3" points="124.3,28 113,29.3 113.9,36.2 114.5,36.7 113.5,29.8 124.3,29 		"/>
		<polygon class="st6" points="96.2,33.7 125.6,35.6 125.2,36.9 96.7,35.9 		"/>
	</g>
	<path class="st0" d="M115.1,4.6c0,2.4-1.9,4.3-4.3,4.3c-2.4,0-4.3-1.9-4.3-4.3c0-2.4,1.9-4.3,4.3-4.3
		C113.2,0.3,115.1,2.2,115.1,4.6z"/>
	<g class="st2">
		<polygon class="st3" points="156.7,43.2 183.1,44.4 182.9,44.8 156.7,44 		"/>
		<polygon class="st3" points="151.2,30 169.8,19.2 189.7,30 		"/>
		<polygon class="st4" points="169.8,19.2 158.4,30 164.1,30 		"/>
		<polygon class="st4" points="182.6,30 169.8,19.2 175.7,30 		"/>
		<polygon class="st3" points="154.5,30 157,52 181.8,52 186.2,30 184.9,30 181.1,51.4 157.6,50.5 156,30 		"/>
		<polygon class="st3" points="154.6,30.6 186,31.2 186.2,30 154.5,30 		"/>
		<polygon class="st5" points="156.7,38.9 158.5,38.1 160.1,45.3 166.6,45.8 166.6,47.1 157.4,48.7 		"/>
		<polygon class="st5" points="181.7,48.2 171.4,47.1 171.4,45.8 179.1,45.1 180.6,38.1 183.1,40.2 		"/>
		<polygon class="st3" points="156.3,53.4 155.5,49.5 184,50.5 183.1,53.4 		"/>
		<polygon class="st3" points="156.7,41.6 168.8,42.6 167.6,49.8 166.9,49.8 168.1,43.4 156.4,42.6 		"/>
		<polygon class="st3" points="183.1,41.6 171.8,42.9 172.7,49.8 173.3,50.3 172.3,43.4 183.1,42.6 		"/>
		<polygon class="st6" points="155.5,46.4 184.4,47 184,50.5 155.5,49.5 		"/>
	</g>
	<circle class="st0" cx="169.6" cy="18.2" r="4.3"/>
	<g class="st2">
		<polygon class="st3" points="195.4,83.7 221.9,85 221.6,85.3 195.4,84.5 		"/>
		<polygon class="st3" points="189.9,70.5 208.5,59.8 228.5,70.5 		"/>
		<polygon class="st4" points="208.5,59.8 197.2,70.5 202.8,70.5 		"/>
		<polygon class="st4" points="221.3,70.5 208.5,59.8 214.4,70.5 		"/>
		<polygon class="st3" points="193.2,70.5 195.8,92.5 220.5,92.5 225,70.5 223.7,70.6 219.8,91.9 196.3,91 194.7,70.5 		"/>
		<polygon class="st3" points="193.3,71.1 224.7,71.8 225,70.5 193.2,70.5 		"/>
		<polygon class="st5" points="195.4,79.5 197.2,78.6 198.8,85.8 205.4,86.4 205.4,87.7 196.2,89.2 		"/>
		<polygon class="st5" points="220.4,88.8 210.2,87.7 210.2,86.3 217.9,85.6 219.4,78.6 221.9,80.7 		"/>
		<polygon class="st3" points="195.1,93.9 194.2,90 222.7,91.1 221.9,93.9 		"/>
		<polygon class="st3" points="195.4,82.1 207.6,83.2 206.4,90.3 205.7,90.4 206.8,83.9 195.2,83.2 		"/>
		<polygon class="st3" points="221.9,82.1 210.6,83.5 211.5,90.4 212.1,90.8 211,83.9 221.9,83.1 		"/>
		<polygon class="st6" points="193.8,88.8 223.1,87.5 222.7,91.1 194.2,90 		"/>
	</g>
	<path class="st0" d="M212.7,58.8c0,2.4-1.9,4.3-4.3,4.3c-2.4,0-4.3-1.9-4.3-4.3c0-2.4,1.9-4.3,4.3-4.3
		C210.7,54.4,212.7,56.4,212.7,58.8z"/>
	<g class="st2">
		<polygon class="st3" points="211.2,139.2 237.6,140.5 237.4,140.8 211.2,140 		"/>
		<polygon class="st3" points="205.7,126.1 224.3,115.3 244.2,126.1 		"/>
		<polygon class="st4" points="224.3,115.3 212.9,126.1 218.6,126.1 		"/>
		<polygon class="st4" points="237.1,126.1 224.3,115.3 230.2,126.1 		"/>
		<polygon class="st3" points="209,126.1 211.5,148.1 236.3,148.1 240.8,126.1 239.5,126.1 235.6,147.4 212.1,146.5 210.5,126.1 		
			"/>
		<polygon class="st3" points="209.1,126.6 240.5,127.3 240.8,126.1 209,126.1 		"/>
		<polygon class="st5" points="211.2,135 213,134.1 214.6,141.4 221.1,141.9 221.1,143.2 211.9,144.7 		"/>
		<polygon class="st5" points="236.2,144.3 226,143.2 226,141.8 233.7,141.1 235.2,134.1 237.6,136.2 		"/>
		<polygon class="st3" points="210.8,149.4 210,145.5 238.5,146.6 237.6,149.4 		"/>
		<polygon class="st3" points="211.2,137.6 223.4,138.7 222.2,145.8 221.5,145.9 222.6,139.4 211,138.7 		"/>
		<polygon class="st3" points="237.6,137.6 226.4,139 227.2,145.9 227.8,146.4 226.8,139.4 237.6,138.6 		"/>
		<polygon class="st6" points="209.2,143.2 238.9,143 238.5,146.6 210,145.5 		"/>
	</g>
	<path class="st0" d="M228.4,114.3c0,2.4-1.9,4.3-4.3,4.3c-2.4,0-4.3-1.9-4.3-4.3c0-2.4,1.9-4.3,4.3-4.3
		C226.5,109.9,228.4,111.9,228.4,114.3z"/>
	<g class="st2">
		<polygon class="st3" points="202.2,186.8 228.7,188 228.5,188.3 202.2,187.6 		"/>
		<polygon class="st3" points="196.8,173.6 215.4,162.8 235.3,173.6 		"/>
		<polygon class="st4" points="215.4,162.8 204,173.6 209.7,173.6 		"/>
		<polygon class="st4" points="228.2,173.6 215.4,162.8 221.3,173.6 		"/>
		<polygon class="st3" points="200.1,173.6 202.6,195.6 227.4,195.6 231.8,173.6 230.5,173.6 226.7,195 203.1,194.1 201.6,173.6 		
			"/>
		<polygon class="st3" points="200.1,174.2 231.6,174.8 231.8,173.6 200.1,173.6 		"/>
		<polygon class="st5" points="202.2,182.5 204,181.7 205.7,188.9 212.2,189.4 212.2,190.7 203,192.3 		"/>
		<polygon class="st5" points="227.2,191.8 217,190.7 217,189.4 224.7,188.7 226.2,181.7 228.7,183.8 		"/>
		<polygon class="st3" points="201.9,197 201,193.1 229.5,194.1 228.7,197 		"/>
		<polygon class="st3" points="202.2,185.2 214.4,186.2 213.2,193.4 212.5,193.4 213.6,187 202,186.2 		"/>
		<polygon class="st3" points="228.7,185.2 217.4,186.5 218.3,193.4 218.9,193.9 217.8,187 228.7,186.2 		"/>
		<polygon class="st6" points="200.6,191.8 229.7,193.1 229.5,194.1 201,193.1 		"/>
	</g>
	<path class="st0" d="M219.5,161.8c0,2.4-1.9,4.3-4.3,4.3c-2.4,0-4.3-1.9-4.3-4.3c0-2.4,1.9-4.3,4.3-4.3
		C217.6,157.5,219.5,159.4,219.5,161.8z"/>
	<g class="st2">
		<polygon class="st3" points="161.8,226.4 188.2,227.7 188,228 161.8,227.2 		"/>
		<polygon class="st3" points="156.3,213.2 174.9,202.5 194.8,213.2 		"/>
		<polygon class="st4" points="174.9,202.5 163.5,213.2 169.2,213.2 		"/>
		<polygon class="st4" points="187.7,213.2 174.9,202.5 180.8,213.2 		"/>
		<polygon class="st3" points="159.6,213.2 162.1,235.2 186.9,235.2 191.4,213.2 190.1,213.3 186.2,234.6 162.7,233.7 161.1,213.2 
					"/>
		<polygon class="st3" points="159.7,213.8 191.1,214.5 191.4,213.2 159.6,213.2 		"/>
		<polygon class="st5" points="161.8,222.2 163.6,221.3 165.2,228.5 171.7,229.1 171.7,230.4 162.5,231.9 		"/>
		<polygon class="st5" points="186.8,231.5 176.6,230.4 176.6,229 184.3,228.3 185.8,221.3 188.2,223.4 		"/>
		<polygon class="st3" points="161.4,236.6 160.6,232.7 189.1,233.8 188.2,236.6 		"/>
		<polygon class="st3" points="161.8,224.8 174,225.8 172.8,233 172,233.1 173.2,226.6 161.6,225.8 		"/>
		<polygon class="st3" points="188.2,224.8 177,226.2 177.8,233.1 178.4,233.5 177.4,226.6 188.2,225.8 		"/>
		<polygon class="st6" points="160.1,231.5 189.5,230.2 189.1,233.8 160.6,232.7 		"/>
	</g>
	<path class="st0" d="M179,201.5c0,2.4-1.9,4.3-4.3,4.3c-2.4,0-4.3-1.9-4.3-4.3s1.9-4.3,4.3-4.3C177.1,197.1,179,199.1,179,201.5z"
		/>
	<path class="st1" d="M176.6,201.5c0,1-0.8,1.9-1.9,1.9s-1.9-0.8-1.9-1.9s0.8-1.9,1.9-1.9S176.6,200.4,176.6,201.5z"/>
	<path class="st1" d="M217,161.8c0,1-0.8,1.9-1.9,1.9c-1,0-1.9-0.8-1.9-1.9s0.8-1.9,1.9-1.9C216.2,160,217,160.8,217,161.8z"/>
	<path class="st1" d="M226.1,114.3c0,1-0.8,1.9-1.9,1.9c-1,0-1.9-0.8-1.9-1.9s0.8-1.9,1.9-1.9C225.3,112.4,226.1,113.2,226.1,114.3z
		"/>
	<path class="st1" d="M210.4,58.8c0,1-0.8,1.9-1.9,1.9s-1.9-0.8-1.9-1.9c0-1,0.8-1.9,1.9-1.9S210.4,57.7,210.4,58.8z"/>
	<path class="st1" d="M171.4,18.2c0,1-0.8,1.9-1.9,1.9c-1,0-1.9-0.8-1.9-1.9s0.8-1.9,1.9-1.9C170.6,16.4,171.4,17.2,171.4,18.2z"/>
	<path class="st1" d="M112.7,4.6c0,1-0.8,1.9-1.9,1.9c-1,0-1.9-0.8-1.9-1.9s0.8-1.9,1.9-1.9C111.8,2.8,112.7,3.6,112.7,4.6z"/>
	<path class="st1" d="M58.4,19.2c0,1-0.8,1.9-1.9,1.9c-1,0-1.9-0.8-1.9-1.9s0.8-1.9,1.9-1.9C57.5,17.4,58.4,18.2,58.4,19.2z"/>
	<path class="st1" d="M18.5,60c0,1-0.8,1.9-1.9,1.9s-1.9-0.8-1.9-1.9c0-1,0.8-1.9,1.9-1.9S18.5,59,18.5,60z"/>
	<path class="st1" d="M6.4,114.3c0,1-0.8,1.9-1.9,1.9s-1.9-0.8-1.9-1.9s0.8-1.9,1.9-1.9S6.4,113.2,6.4,114.3z"/>
	<path class="st1" d="M21.8,168.4c0,1-0.8,1.9-1.9,1.9c-1,0-1.9-0.8-1.9-1.9s0.8-1.9,1.9-1.9C21,166.5,21.8,167.3,21.8,168.4z"/>
	<g class="st2">
		<polygon class="st3" points="42.1,230.8 68.5,232.1 68.3,232.4 42.1,231.6 		"/>
		<polygon class="st3" points="36.6,217.7 55.2,206.9 75.1,217.7 		"/>
		<polygon class="st4" points="55.2,206.9 43.8,217.7 49.5,217.7 		"/>
		<polygon class="st4" points="68,217.7 55.2,206.9 61.1,217.7 		"/>
		<polygon class="st3" points="39.9,217.7 42.4,239.7 67.2,239.7 71.6,217.7 70.3,217.7 66.5,239 43,238.1 41.4,217.7 		"/>
		<polygon class="st3" points="40,218.2 71.4,218.9 71.6,217.7 39.9,217.7 		"/>
		<polygon class="st5" points="42.1,226.6 43.9,225.7 45.5,233 52,233.5 52,234.8 42.8,236.3 		"/>
		<polygon class="st5" points="67.1,235.9 56.8,234.8 56.8,233.4 64.5,232.7 66,225.7 68.5,227.8 		"/>
		<polygon class="st3" points="41.7,241.1 40.9,237.1 69.4,238.2 68.5,241.1 		"/>
		<polygon class="st3" points="42.1,229.2 54.2,230.3 53,237.4 52.3,237.5 53.5,231 41.8,230.3 		"/>
		<polygon class="st3" points="68.5,229.2 57.2,230.6 58.1,237.5 58.7,238 57.7,231 68.5,230.2 		"/>
		<polygon class="st6" points="40.4,235.9 69.6,235.9 69.4,238.2 40.9,237.1 		"/>
	</g>
	<circle class="st0" cx="55" cy="205.9" r="4.3"/>
	<path class="st1" d="M57,205.9c0,1-0.8,1.9-1.9,1.9c-1,0-1.9-0.8-1.9-1.9c0-1,0.8-1.9,1.9-1.9C56.1,204,57,204.9,57,205.9z"/>
	<g class="st2">
		<polygon class="st3" points="101.1,247.8 127.5,249.1 127.3,249.4 101.1,248.6 		"/>
		<polygon class="st3" points="95.6,234.7 114.2,223.9 134.1,234.7 		"/>
		<polygon class="st4" points="114.2,223.9 102.8,234.7 108.5,234.7 		"/>
		<polygon class="st4" points="127,234.7 114.2,223.9 120.1,234.7 		"/>
		<polygon class="st3" points="98.9,234.7 101.4,256.7 126.2,256.7 130.6,234.7 129.3,234.7 125.5,256 102,255.1 100.4,234.7 		"/>
		<polygon class="st3" points="99,235.2 130.4,235.9 130.6,234.7 98.9,234.7 		"/>
		<polygon class="st5" points="101.1,243.6 102.9,242.7 104.5,250 111,250.5 111,251.8 101.8,253.3 		"/>
		<polygon class="st5" points="126.1,252.9 115.8,251.8 115.8,250.4 123.5,249.7 125,242.7 127.5,244.8 		"/>
		<polygon class="st3" points="100.7,258.1 99.9,254.1 128.4,255.2 127.5,258.1 		"/>
		<polygon class="st3" points="101.1,246.2 113.2,247.3 112,254.4 111.3,254.5 112.5,248 100.8,247.3 		"/>
		<polygon class="st3" points="127.5,246.2 116.2,247.6 117.1,254.5 117.7,255 116.7,248 127.5,247.2 		"/>
		<polygon class="st6" points="99.4,252.9 128.6,252.9 128.4,255.2 99.9,254.1 		"/>
	</g>
	<path class="st0" d="M119,223.5c0,2.4-1.9,4.3-4.3,4.3c-2.4,0-4.3-1.9-4.3-4.3s1.9-4.3,4.3-4.3C117.1,219.1,119,221.1,119,223.5z"
		/>
	<path class="st1" d="M116.6,223.5c0,1-0.8,1.9-1.9,1.9c-1,0-1.9-0.8-1.9-1.9s0.8-1.9,1.9-1.9C115.7,221.6,116.6,222.4,116.6,223.5z
		"/>
</g>
</svg>
