<svg id="Calque_1" data-name="Calque 1" xmlns="http://www.w3.org/2000/svg" viewBox="0 0 45 45"><defs><style>.cls-1{fill:#17fbd2;}.cls-2{fill:#fff;}</style></defs><title>Plan de travail 1</title><circle class="cls-1" cx="22.5" cy="22.5" r="21"/><path class="cls-2" d="M22.5,3A19.5,19.5,0,1,1,3,22.5,19.53,19.53,0,0,1,22.5,3m0-3A22.5,22.5,0,1,0,45,22.5,22.5,22.5,0,0,0,22.5,0Z"/><circle class="cls-2" cx="21.5" cy="14.64" r="1.85"/><path class="cls-2" d="M20.89,22.06a1.91,1.91,0,0,0,.9,1.55,12.76,12.76,0,0,0-.1,5.83.94.94,0,0,0,.92.73l.21,0A1,1,0,0,0,23.53,29a10.83,10.83,0,0,1,.24-5.54,1.67,1.67,0,0,0,.73-1.43c-.08-1.16-.22-2.32-.36-3.47a1.85,1.85,0,0,0-1.81-1.8,1.91,1.91,0,0,0-1.18.45,3.1,3.1,0,0,1-2.46-2.07,2.26,2.26,0,0,0,0-.27,3.55,3.55,0,0,0-.76-1.9,11.16,11.16,0,0,1-.71-2.61h-1V11l.79.73h.56v-.48l-.78,0-.57-.42v.41h.5a1.67,1.67,0,0,1-.57.79,2.13,2.13,0,0,0-.57.7,3.14,3.14,0,0,0,.32,3.08,2.11,2.11,0,0,0,1.46.72,5.11,5.11,0,0,0,3.19,2.39C20.69,19.93,20.82,21,20.89,22.06Zm-4-6.89a3.94,3.94,0,0,0,.33,1.41A1.91,1.91,0,0,1,16.11,16a2.94,2.94,0,0,1-.28-2.79,2,2,0,0,1,.51-.61,2,2,0,0,0,.62-.82h0a3.46,3.46,0,0,0,.74,1.8,5.41,5.41,0,0,1,.55,1A.83.83,0,0,0,16.91,15.17Z"/><path class="cls-2" d="M26.68,24.31a18.11,18.11,0,0,0-1.77,6.3h-6V36h1.35V33.3h5.39V36h0V31.31a17.37,17.37,0,0,1,1.72-6.71Zm-1,7.65H20.28V30.61h5.39Z"/></svg>