<?xml version="1.0" encoding="utf-8"?>
<!-- Generator: Adobe Illustrator 22.0.1, SVG Export Plug-In . SVG Version: 6.00 Build 0)  -->
<svg version="1.1" id="Calque_1" xmlns="http://www.w3.org/2000/svg" xmlns:xlink="http://www.w3.org/1999/xlink" x="0px" y="0px"
	 viewBox="0 0 45 45" style="enable-background:new 0 0 45 45;" xml:space="preserve">
<style type="text/css">
	.st0{fill:#1562E0;}
	.st1{fill:#FFFFFF;}
</style>
<title>Plan de travail 1</title>
<circle class="st0" cx="22.5" cy="22.5" r="21"/>
<path class="st1" d="M22.5,3C33.3,3,42,11.7,42,22.5S33.3,42,22.5,42S3,33.3,3,22.5C3,11.7,11.7,3,22.5,3 M22.5,0
	C10.1,0,0,10.1,0,22.5S10.1,45,22.5,45S45,34.9,45,22.5S34.9,0,22.5,0z"/>
<circle class="st1" cx="22" cy="11.2" r="2.4"/>
<path class="st1" d="M21.2,20.8c0,0.8,0.5,1.6,1.2,2c-0.6,2.5-0.7,5.1-0.1,7.6c0.1,0.6,0.6,0.9,1.2,0.9h0.3c0.7-0.2,1.1-0.8,0.9-1.5
	c-0.5-2.4-0.4-4.9,0.3-7.2c0.6-0.4,1-1.1,0.9-1.9c-0.1-1.5-0.3-3-0.5-4.5c0-1.3-1.1-2.3-2.3-2.3c-0.6,0-1.1,0.2-1.5,0.6
	c-1.5-0.2-2.7-1.3-3.2-2.7c0-0.1,0-0.2,0-0.4c-0.1-0.9-0.4-1.8-1-2.5c-0.4-1.1-0.8-2.2-0.9-3.4h-1.3v0.8l1,0.9h0.7V6.8h-1l-0.7-0.5
	v0.5h0.6c-0.1,0.4-0.4,0.8-0.7,1c-0.3,0.2-0.6,0.6-0.7,0.9c-0.6,1.3-0.4,2.8,0.4,4c0.5,0.6,1.2,0.9,1.9,0.9c0.9,1.6,2.4,2.7,4.1,3.1
	C20.9,18,21.1,19.4,21.2,20.8z M16,11.9c0,0.6,0.2,1.3,0.4,1.8c-0.6-0.1-1.1-0.3-1.4-0.8c-0.7-1.1-0.9-2.4-0.4-3.6
	C14.8,9,15,8.7,15.3,8.5c0.4-0.3,0.6-0.6,0.8-1.1l0,0c0.1,0.9,0.4,1.7,1,2.3c0.3,0.4,0.5,0.8,0.7,1.3c-0.5-0.4-1.1-0.3-1.5,0.2
	C16.1,11.4,16,11.7,16,11.9L16,11.9z"/>
<path class="st1" d="M28.7,23.7c-1.3,2.6-2,5.3-2.3,8.2h-7.8v7h1.8v-3.5h7v3.5l0,0v-6.1c0.2-3,0.9-6,2.2-8.7L28.7,23.7z M27.4,33.6
	h-7v-1.8h7L27.4,33.6z"/>
</svg>
