<?xml version="1.0" encoding="utf-8"?>
<!-- Generator: Adobe Illustrator 22.0.1, SVG Export Plug-In . SVG Version: 6.00 Build 0)  -->
<svg version="1.1" id="Calque_1" xmlns="http://www.w3.org/2000/svg" xmlns:xlink="http://www.w3.org/1999/xlink" x="0px" y="0px"
	 viewBox="0 0 45 45" style="enable-background:new 0 0 45 45;" xml:space="preserve">
<style type="text/css">
	.st0{fill:#8749D1;}
	.st1{fill:#FFFFFF;}
</style>
<title>Plan de travail 1</title>
<circle class="st0" cx="22.5" cy="22.5" r="21"/>
<path class="st1" d="M22.5,3C33.3,3,42,11.7,42,22.5S33.3,42,22.5,42S3,33.3,3,22.5C3,11.7,11.7,3,22.5,3 M22.5,0
	C10.1,0,0,10.1,0,22.5S10.1,45,22.5,45S45,34.9,45,22.5S34.9,0,22.5,0z"/>
<rect x="13" y="18" class="st1" width="1" height="6"/>
<path class="st1" d="M23.6,26H24v-1H13v1h1v7h4.5c0-2.3,1.7-2.1,1.7-2.1c2.2-0.3,3.8-2.3,3.5-4.5C23.6,26.3,23.6,26.1,23.6,26z"/>
<path class="st1" d="M29.2,14.2c0.8-1.2,0.5-2.9-0.7-3.7c-1.2-0.8-2.9-0.5-3.7,0.7c-0.8,1.2-0.5,2.9,0.7,3.7c0.4,0.3,1,0.5,1.5,0.5
	c0.3,0,0.5,0,0.8-0.1c-0.3,1.1-0.7,2.3-1.2,3.4l-0.8-1.2c0.3-1.3-0.5-2.6-1.8-2.8c-0.6-0.1-1.1,0-1.6,0.2c-2.2,1.3-4,3.3-5,5.7
	c-0.6,1.1-0.2,2.5,0.9,3.2l0.1,0.1c0.2,0.2,0.5,0.3,0.8,0.3c2.3,0.2,4.6,0.3,7,0.3c-0.7,2.1-1.5,4.2-2.4,6.3
	c-0.7,1.8,2.2,2.6,2.9,0.8c1.1-2.7,2.1-5.5,3-8.3c0.2-0.8-0.2-1.6-1-1.8c-0.2-0.1-0.4-0.1-0.6,0h-0.1c0.9-1.9,1.6-3.8,2.1-5.8
	C30.1,15,29.8,14.4,29.2,14.2z M22.3,21.2c0.5-0.8,1.2-1.5,2-2.1c0.5,0.7,0.9,1.4,1.3,2.1C24.5,21.3,23.4,21.3,22.3,21.2L22.3,21.2z
	"/>
</svg>
